<svg width="318" height="262" viewBox="0 0 318 262" fill="none" xmlns="http://www.w3.org/2000/svg">
<rect x="214" y="80" width="104" height="164" fill="#5CBFCC"/>
<path d="M214 64H302.873L318 80H214L214 64Z" fill="#D5D1FF"/>
<path d="M265.237 141.66C275.677 141.66 281.857 136.56 281.857 128.52C281.857 123.06 278.497 119.52 273.517 118.44C277.777 116.94 280.597 113.94 280.597 109.14C280.597 102.42 275.077 97.5 265.657 97.5C255.877 97.5 250.297 103.26 249.817 111.12H258.397C258.877 107.1 261.397 104.64 265.477 104.64C269.437 104.64 271.417 106.92 271.417 109.98C271.417 113.64 269.377 115.68 264.877 115.68H261.757V122.16H265.117C269.737 122.16 272.017 124.26 272.017 128.34C272.017 132.18 269.737 134.52 264.877 134.52C259.717 134.52 257.497 131.52 257.137 127.38H248.377C248.737 136.08 254.317 141.66 265.237 141.66Z" fill="white"/>
<rect y="48" width="104" height="164" fill="#7390D9"/>
<path d="M14.1818 32H104V48H0L14.1818 32Z" fill="#EDEBFF"/>
<path d="M29.2491 130H72.4491V120.16H50.2091L61.0091 109.6C67.6491 103.2 72.0491 96.96 72.0491 89.36C72.0491 79.04 64.8491 72 52.2091 72C39.4091 72 31.4091 79.2 30.7691 92.4H42.5291C43.4091 84.88 46.6091 81.92 51.6491 81.92C56.6091 81.92 59.2491 84.96 59.2491 89.68C59.2491 94.88 55.7291 99.92 50.2091 105.76L29.2491 127.92V130Z" fill="white"/>
<rect x="104" y="16" width="110" height="246" fill="url(#paint0_linear_365_2343)"/>
<path d="M120 0H198L214 16H104L120 0Z" fill="#CDC9F3"/>
<path d="M155.167 118H171.367V46.5H157.167L140.667 58.2V72L155.167 62.5V118Z" fill="white"/>
<defs>
<linearGradient id="paint0_linear_365_2343" x1="159" y1="16" x2="159" y2="189" gradientUnits="userSpaceOnUse">
<stop stop-color="#1804DA" stop-opacity="0.3"/>
<stop offset="1" stop-color="#47D0E5"/>
</linearGradient>
</defs>
</svg>
